# xmcd CD database file
#
# Track frame offsets:
#	150
#	43647
#	73138
#	89684
#	116361
#	142969
#	174757
#	190687
#	223336
#	237613
#	258388
#
# Disc length: 3822 seconds
#
# Revision: 0
# Processed by: cddbd v1.5.2PL0 Copyright (c) Steve Scherf et al.
# Submitted via: CDex 1.70beta2
#
DISCID=a10eec0b
DTITLE=The S'Coolmasters BigBand - Have You Heard
DYEAR=2016
DGENRE=Jazz
TTITLE0=Computer
TTITLE1=Have You Heard
TTITLE2=Four
TTITLE3=Kids Are Pretty People
TTITLE4=Foot
TTITLE5=Green Piece
TTITLE6=Oh Lawd I'm On My Way
TTITLE7=Lover Man
TTITLE8=Growin' On Dr. John
TTITLE9=Stomping at the Savoy
TTITLE10=Hunting Wabbits
EXTD=YEAR: 2016
EXTT0=
EXTT1=
EXTT2=
EXTT3=
EXTT4=
EXTT5=
EXTT6=
EXTT7=
EXTT8=
EXTT9=
EXTT10=
PLAYORDER=
